<svg xmlns="http://www.w3.org/2000/svg" fill="none" viewBox="0 0 768.3149999999999 573.6705882352941" style="max-height: 500px" width="768.3149999999999" height="573.6705882352941">
<g clip-path="url(#clip0_1851_136)">
<path fill="#ffffff" d="M495.031 500.068V401.137L459.277 377.926V566.988L495.031 500.068Z"/>
<path fill="#ffffff" d="M728.457 354.831L495.031 500.091L459.277 567.012L764.211 377.949V188.98L728.457 255.901V354.831Z"/>
<path fill="#ffffff" d="M459.277 188.969L764.211 377.938V188.969L459.277 0V188.969Z"/>
<path fill="#ffffff" d="M459.277 188.969H764.211L459.277 0V188.969Z"/>
<path fill="#ffffff" d="M582.917 301.371L459.277 377.932L495.031 401.144L619.232 323.834L582.917 301.371Z"/>
<path fill="#ffffff" d="M269.199 66.827V165.757L304.953 188.969V0L269.199 66.827Z"/>
<path fill="#ffffff" d="M35.7534 212.18L269.18 66.827L304.933 0L0 188.969V377.938L35.7534 311.111V212.18Z"/>
<path fill="#ffffff" d="M304.933 377.949L0 188.98V377.949L304.933 566.918V377.949Z"/>
<path fill="#ffffff" d="M304.933 377.926H0L304.933 566.895V377.926Z"/>
<path fill="#ffffff" d="M181.28 265.632L304.919 188.977L269.166 165.766L144.965 243.169L181.28 265.632Z"/>
<path fill="#ffffff" d="M417.072 567H347.438L362.6 0H404.156L417.072 567Z"/>
<path fill="#ffffff" d="M1096.22 52.3109V133.739H1109.56V171.645H1089.9V150.586H1007.77V52.3109H1027.43V133.739H1076.57V52.3109H1096.22ZM1125.68 52.3109H1209.92V69.1581H1145.34V93.0249H1194.47V109.872H1145.34V133.739H1211.32V150.586H1125.68V52.3109ZM1247.89 109.872V150.586H1228.23V52.3109H1247.89V93.0249H1299.83V52.3109H1319.49V150.586H1299.83V109.872H1247.89ZM1390.43 150.586H1370.78V69.1581H1334.27V52.3109H1426.93V69.1581H1390.43V150.586ZM1514 121.103H1461.36V150.586H1441.7V52.3109H1514L1532.26 69.1581V104.256L1514 121.103ZM1512.6 76.1777L1504.88 69.1581H1461.36V104.256H1504.88L1512.6 97.2366V76.1777Z"/>
<path fill="#ffffff" d="M1027.43 278.345V319.059H1007.77V220.784H1027.43V261.498H1044.28L1074.46 220.784H1098.33L1062.53 268.517L1101.13 319.059H1077.27L1046.38 278.345H1027.43ZM1185.37 289.576H1132.72V319.059H1113.07V220.784H1185.37L1203.62 237.631V272.729L1185.37 289.576ZM1183.97 244.65L1176.24 237.631H1132.72V272.729H1176.24L1183.97 265.709V244.65ZM1221.93 220.784H1306.16V237.631H1241.58V261.498H1290.72V278.345H1241.58V302.211H1307.57V319.059H1221.93V220.784ZM1403.1 319.059L1391.87 293.086H1345.54L1334.31 319.059H1312.55L1356.07 220.784H1381.34L1424.86 319.059H1403.1ZM1368.7 240.439L1353.26 276.239H1384.15L1368.7 240.439ZM1478.18 319.059H1458.52V237.631H1422.02V220.784H1514.68V237.631H1478.18V319.059ZM1602.45 319.059V251.67L1547.7 319.059H1529.45V220.784H1549.1V288.172L1603.86 220.784H1622.11V319.059H1602.45ZM1725.31 266.411L1739.35 279.749V304.317L1723.2 319.059H1645.98V220.784H1718.29L1734.43 235.525V258.69L1725.31 266.411ZM1714.08 302.211L1719.69 297.298V284.662L1711.97 277.643H1665.64V302.211H1714.08ZM1714.78 242.544L1709.16 237.631H1665.64V260.796H1707.06L1714.78 253.776V242.544ZM1777.93 278.345V319.059H1758.27V220.784H1777.93V261.498H1829.87V220.784H1849.53V319.059H1829.87V278.345H1777.93ZM1996.28 220.784V319.059H1976.63V220.784H1996.28ZM1933.81 302.211L1941.53 295.192V278.345L1933.81 271.325H1893.09V302.211H1933.81ZM1893.09 254.478H1942.93L1961.18 271.325V302.211L1942.93 319.059H1873.44V220.784H1893.09V254.478ZM2112.09 319.059H2088.93L2060.15 282.556L2031.37 319.059H2008.2L2047.51 268.517L2011.01 220.784H2034.18L2060.15 255.18L2086.12 220.784H2109.29L2072.78 268.517L2112.09 319.059Z"/>
<path fill="#2A2D59" d="M1054.8 487.527H1035.15V406.099H998.648V389.252H1091.31V406.099H1054.8V487.527ZM1106.08 389.252H1190.31V406.099H1125.73V429.966H1174.87V446.813H1125.73V470.68H1191.72V487.527H1106.08V389.252ZM1300.59 487.527H1277.42L1248.64 451.025L1219.86 487.527H1196.69L1236 436.986L1199.5 389.252H1222.67L1248.64 423.649L1274.61 389.252H1297.78L1261.28 436.986L1300.59 487.527ZM1332.21 446.813V487.527H1312.55V389.252H1332.21V429.966H1384.15V389.252H1403.81V487.527H1384.15V446.813H1332.21ZM1454.39 404.696L1445.27 413.119V463.661L1454.39 472.084H1493L1502.13 463.661V413.119L1493 404.696H1454.39ZM1445.27 387.848H1502.13L1521.78 406.099V470.68L1502.13 488.931H1445.27L1425.61 470.68V406.099L1445.27 387.848ZM1551.99 463.661L1558.31 389.252H1633.42V487.527H1613.77V406.099H1577.26L1571.65 470.68L1551.99 488.931H1533.04V472.084H1542.87L1551.99 463.661ZM1683.9 404.696L1674.78 413.119V463.661L1683.9 472.084H1722.51L1731.64 463.661V413.119L1722.51 404.696H1683.9ZM1674.78 387.848H1731.64L1751.29 406.099V470.68L1731.64 488.931H1674.78L1655.12 470.68V406.099L1674.78 387.848ZM1792.73 487.527H1773.08V389.252H1852.4V406.099H1792.73V487.527ZM1938.76 487.527V420.139L1884.01 487.527H1865.76V389.252H1885.42V456.641L1940.17 389.252H1958.42V487.527H1938.76ZM2039.86 353.452H2055.3V364.684L2041.96 376.617H2015.29L2001.95 364.684V353.452H2017.4V358.366L2023.01 363.28H2034.24L2039.86 358.366V353.452ZM2055.3 487.527V420.139L2000.55 487.527H1982.3V389.252H2001.95V456.641L2056.71 389.252H2074.96V487.527H2055.3Z"/>
</g>
<defs>
<clipPath id="clip0_1851_136">
<rect fill="white" height="567" width="2226.91"/>
</clipPath>
</defs>
</svg>